<svg width="48" height="34" viewBox="0 0 48 34" fill="none" xmlns="http://www.w3.org/2000/svg">
<path d="M3.6 0C1.61178 0 0 1.30473 0 2.91429C0 4.52375 1.61178 5.82857 3.6 5.82857H44.4C46.3882 5.82857 48 4.52375 48 2.91429C48 1.30473 46.3882 0 44.4 0H3.6ZM3.6 14.0857C1.61178 14.0857 0 15.3904 0 17C0 18.6095 1.61178 19.9143 3.6 19.9143H44.4C46.3882 19.9143 48 18.6095 48 17C48 15.3904 46.3882 14.0857 44.4 14.0857H3.6ZM3.6 28.1714C1.61178 28.1714 0 29.4762 0 31.0857C0 32.6952 1.61178 34 3.6 34H44.4C46.3882 34 48 32.6952 48 31.0857C48 29.4762 46.3882 28.1714 44.4 28.1714H3.6Z" fill="#0166FF"/>
</svg>
